<?xml version="1.0" standalone="no"?>
<!DOCTYPE svg PUBLIC "-//W3C//DTD SVG 20010904//EN"
 "http://www.w3.org/TR/2001/REC-SVG-20010904/DTD/svg10.dtd">
<svg version="1.0" xmlns="http://www.w3.org/2000/svg"
 width="325.000000pt" height="93.000000pt" viewBox="0 0 325.000000 93.000000"
 preserveAspectRatio="xMidYMid meet">
<metadata>
Created by potrace 1.15, written by Peter Selinger 2001-2017
</metadata>
<g transform="translate(0.000000,93.000000) scale(0.100000,-0.100000)"
fill="#000000" stroke="none">
<path d="M423 855 c-100 -31 -212 -129 -233 -203 -47 -169 72 -248 218 -145
101 71 150 175 103 217 -59 53 -209 -50 -227 -157 -6 -31 -5 -30 21 13 35 60
82 107 128 131 111 58 110 -75 -1 -171 -117 -100 -232 -86 -232 28 0 81 105
213 207 262 66 32 162 33 220 2 65 -34 70 -52 26 -98 -20 -22 -65 -83 -100
-137 -69 -106 -134 -177 -183 -197 -25 -10 -40 -10 -88 4 -69 19 -133 21 -150
4 -37 -37 21 -64 111 -53 34 4 109 8 167 9 123 1 159 15 230 86 82 81 120 204
87 282 -15 37 -15 38 10 58 33 25 95 42 127 34 77 -19 69 -110 -14 -143 -19
-7 -20 -10 -7 -10 29 -1 55 17 72 49 23 44 19 76 -12 100 -37 29 -107 23 -162
-13 l-39 -26 -23 26 c-54 58 -160 78 -256 48z m297 -140 c29 -88 -45 -243
-144 -304 -43 -27 -129 -45 -174 -36 l-37 7 47 24 c66 33 136 109 187 200 48
88 88 144 101 144 5 0 14 -16 20 -35z"/>
<path d="M1746 847 c-92 -52 -102 -167 -21 -241 l34 -31 -60 -73 c-92 -112
-183 -161 -234 -128 -49 32 -45 94 11 156 66 73 154 86 170 26 11 -44 -52
-126 -96 -126 -47 0 -48 54 -3 90 14 11 20 20 14 20 -21 0 -61 -48 -61 -73 0
-48 42 -61 97 -27 59 36 81 112 43 150 -35 35 -109 20 -168 -34 -57 -51 -70
-134 -27 -180 28 -30 67 -34 121 -11 39 16 131 105 171 166 18 27 33 39 49 39
13 0 24 -5 24 -10 0 -6 -18 -44 -40 -84 -22 -40 -40 -77 -40 -81 0 -14 77 64
117 118 19 26 41 47 49 47 18 0 19 5 -16 -64 -17 -32 -30 -71 -30 -86 0 -58
53 -63 112 -11 l33 29 10 -31 c8 -25 16 -33 40 -35 33 -3 82 29 196 126 33 29
66 51 73 49 29 -10 15 -42 -42 -97 -50 -49 -65 -58 -93 -57 -25 2 -34 -2 -37
-17 -3 -15 1 -18 22 -14 32 6 34 -5 4 -21 -13 -6 -15 -9 -5 -7 25 8 22 -1 -22
-58 -48 -65 -117 -114 -134 -97 -23 23 17 70 119 139 10 7 -1 2 -25 -10 -85
-45 -141 -136 -89 -146 46 -9 178 93 198 153 9 28 22 39 68 60 88 40 149 83
171 120 19 33 61 65 61 47 0 -5 -27 -44 -60 -87 -33 -43 -60 -79 -60 -81 0 -2
7 -4 16 -4 9 0 48 34 87 76 108 114 149 129 77 26 -46 -65 -49 -95 -9 -100 17
-2 41 10 76 38 l51 40 -11 -30 c-14 -37 0 -55 36 -46 28 7 99 63 131 104 11
15 -4 5 -34 -21 -60 -54 -106 -81 -114 -68 -3 5 19 43 49 85 30 42 55 79 55
81 0 19 -34 -4 -85 -56 -134 -138 -200 -159 -115 -38 22 32 40 64 40 73 0 27
-27 29 -64 7 -33 -21 -34 -21 -39 -1 -7 28 -40 25 -71 -7 -14 -16 -42 -45 -61
-65 -36 -38 -148 -98 -181 -98 -11 0 2 12 31 29 67 38 97 72 98 111 4 76 -55
62 -165 -38 -101 -91 -158 -114 -158 -62 0 13 15 27 48 44 57 29 97 69 89 90
-15 39 -74 10 -162 -78 -74 -75 -109 -96 -127 -78 -13 13 2 60 43 130 23 41
40 57 73 72 24 10 59 32 78 49 20 17 43 31 52 31 9 0 39 22 66 49 101 101 67
190 -50 131 -51 -26 -160 -128 -218 -205 -25 -33 -47 -62 -49 -64 -2 -2 -5 -2
-8 1 -3 2 26 64 64 136 38 73 65 132 61 132 -18 0 -69 -52 -67 -68 0 -10 -23
-57 -52 -105 -37 -62 -58 -87 -72 -87 -25 0 -16 18 49 97 26 32 54 67 62 78
15 20 15 20 -8 1 -13 -11 -48 -53 -79 -93 -48 -63 -58 -71 -75 -62 -27 14 -58
69 -58 101 0 60 46 128 105 154 23 10 25 13 10 13 -11 1 -38 -9 -59 -22z m484
-12 c19 -23 -5 -78 -55 -124 -51 -47 -62 -50 -67 -18 -5 35 -33 28 -33 -9 0
-38 -17 -60 -68 -85 -43 -22 -43 -21 11 56 59 83 124 156 156 176 37 23 40 23
56 4z"/>
<path d="M1237 759 c-52 -34 -155 -144 -239 -254 -49 -64 -127 -135 -149 -135
-19 0 -8 30 29 77 21 26 46 60 56 75 l18 27 -70 -2 c-57 -2 -78 -8 -111 -30
-72 -48 -102 -124 -58 -151 14 -9 26 -6 56 10 38 21 40 21 44 3 3 -11 13 -19
22 -19 21 0 68 25 84 44 20 24 26 20 26 -16 0 -44 31 -48 90 -13 35 20 45 22
45 11 0 -21 17 -29 45 -22 27 7 98 64 129 104 11 15 -4 5 -34 -21 -60 -54
-106 -81 -114 -68 -3 5 19 43 50 86 81 113 50 122 -35 11 -41 -54 -112 -116
-133 -116 -27 0 -16 38 32 109 39 58 64 84 94 98 98 49 210 156 204 197 -5 31
-29 30 -81 -5z"/>
</g>
</svg>
